<?xml version="1.0" encoding="UTF-8"?>
<svg id="_レイヤー_1" data-name="レイヤー_1" xmlns="http://www.w3.org/2000/svg" version="1.1" viewBox="0 0 331 227">
  <!-- Generator: Adobe Illustrator 29.6.0, SVG Export Plug-In . SVG Version: 2.1.1 Build 207)  -->
  <defs>
    <style>
      .st0 {
        fill: #e59599;
      }

      .st1 {
        fill: #c6161e;
      }

      .st2 {
        fill: #e39094;
      }

      .st3 {
        fill: #fefefe;
      }

      .st4 {
        fill: #e9a4a7;
      }

      .st5 {
        fill: #de787d;
      }
    </style>
  </defs>
  <path class="st1" d="M65,178c-4.95-1.26-10.13-2.12-14.52-4.99-.36-.52,3.14-5.33,3.52-5.57,1.16-.73,11.89,3.76,14.75,4.3,1.59.3,8.69,1.36,9.72,1.26,2.56-.24,5.74-6.18,11.28-6.82,4.86-.56,7.89,3.04,11.7,2.9,2.4-.08,10.47-3.71,13.21-4.92,21.83-9.68,39.34-26.54,54.32-44.69.42-2.26-.99-1.38-2.48-1.49-5.93-.43-12.12.42-18.06.04-21.98-1.42-51.52-13.1-63.65-32.35-18.68-29.63,9.63-52.61,39.2-45.2,21.02,5.26,32.67,21.31,43.41,38.59,5.09,8.18,9.16,17.23,14.57,24.91,10.52-22.37,25.07-51.62,49.33-61.18,41.53-16.36,72.8,23.37,35.15,55.15-23.62,19.94-42.57,17.95-70.99,20.03-1.49.11-2.89-.78-2.48,1.49,16.86,19.37,35.58,37.55,60.01,47,10.18,3.94,7.65,1.36,15.94-.07,9.29-1.6,8.57,4.01,13.07,6.09,5.59,2.57,24.6-5.72,25.95-5.05,1.17.58,4.63,3.96,3.57,5.58-1.51,2.3-10.61,4.26-13.54,4.97-5.91,1.33-6.57,2-2,2,3.09.13,6.4.13,9.5,0,1.88-.08,6.81-2.61,6.46.45-1.38,12.03-6.38,11.35-16.96,10.56-2.34-.19-3.01.14-2,1,3.47,1.55,14.6,3.94,6.98,7.49-3.68,1.72-10.16-2.38-13.65-4.32-2.9-1.61-9.56-7.2-11.27-7.73-3.33-1.03-6.66.08-10.33-1.67-5.63-2.69-4.53-8.4-6.75-10.25-1.75-1.46-16.78-6.72-21.01-8.99-21.83-11.73-38.12-29.47-54-48.04-.58-.68-1.01-1.56-1-2.48-17.52,19.08-33.14,37.52-56.31,50.17-5.15,2.81-17.42,6.82-20.67,9.33-2.78,2.15-2.32,6.34-4.73,8.54-4.03,3.68-9.06,2.08-13.23,3.49-6.91,2.34-19.99,19.1-28.02,8.96,0-1.02,8.3-3.73,9.98-4.5.51-.75-.16-1.08-2-1-11.99.88-15.16,1.94-15.99-12,4.74.78,9.16,1.11,13.99,1,.48-.66.47-1.32,0-2Z"/>
  <path class="st4" d="M65,178c1.49.38,3.89.07,5.01,1.5-.03.93-3.86.47-5.01.5v-2Z"/>
  <path class="st2" d="M298,178l-2,2c-1.33-.06-2.67.05-3.99-.01v-.98c1.94-.4,4.09-.55,5.99-1.01Z"/>
  <path class="st5" d="M67,191c.71-.05,3.16-1.91,5-.99-.11,1.78-1.93,1.5-3,1.99l-2-1Z"/>
  <path class="st0" d="M295,191l-2,1c-1.37-.61-3.33-.76-3-1.99,2.07-.95,4.26.93,5,.99Z"/>
  <path class="st3" d="M187,111c-2.89-2.51,19.23-37.29,22.19-41.31,8.44-11.48,20.71-21.84,35.42-23.58,25.62-3.02,41.5,17.42,24.37,39.37-9.49,12.15-36.18,25.52-51.48,25.52h-30.5Z"/>
  <path class="st3" d="M175,111h-31.5c-13.55,0-40.23-13.42-49.01-23.99-22.58-27.19,4.27-49.07,33.04-38.04,18.64,7.15,32.78,29.12,41.65,46.35,2.53,4.92,5.23,10.05,5.83,15.67Z"/>
</svg>