<?xml version="1.0" encoding="UTF-8"?>
<svg id="_レイヤー_1" data-name="レイヤー_1" xmlns="http://www.w3.org/2000/svg" version="1.1" viewBox="0 0 331 227">
  <!-- Generator: Adobe Illustrator 29.6.0, SVG Export Plug-In . SVG Version: 2.1.1 Build 207)  -->
  <defs>
    <style>
      .st0 {
        fill: #ff2a00;
      }
    </style>
  </defs>
  <path class="st0" d="M305.5,179.99c-3.1.14-6.4.14-9.5,0-.39,0-.72,0-1.04-.02-.99,0-1.98.05-2.96,0v-.98c1.94-.4,4.09-.55,5.99-1.01,2.93-.71,12.03-2.67,13.54-4.97,1.06-1.63-2.4-5.01-3.57-5.58-1.35-.67-20.36,7.63-25.95,5.05-4.51-2.07-3.78-7.69-13.07-6.09-8.29,1.43-5.75,4.01-15.94.07-24.43-9.45-43.15-27.62-60.01-47-.42-2.26.99-1.38,2.48-1.49,28.41-2.08,47.36-.09,70.99-20.03,37.65-31.78,6.38-71.51-35.15-55.15-24.26,9.56-38.81,38.81-49.33,61.18-5.41-7.68-9.49-16.73-14.57-24.91-10.74-17.28-22.38-33.33-43.41-38.59-29.57-7.4-57.89,15.58-39.2,45.2,12.14,19.24,41.67,30.93,63.65,32.35,5.93.38,12.12-.48,18.06-.04,1.49.11,2.89-.78,2.48,1.49-14.98,18.14-32.49,35-54.32,44.69-2.73,1.21-10.81,4.84-13.21,4.92-3.81.13-6.84-3.46-11.7-2.9-5.54.64-8.72,6.58-11.28,6.82-1.04.1-8.13-.96-9.72-1.26-2.86-.54-13.59-5.03-14.75-4.3-.38.24-3.88,5.04-3.52,5.57,4.38,2.88,9.56,3.74,14.52,4.99,1.49.38,3.89.07,5.01,1.5-.03.93-3.86.47-5.01.5-4.83.12-9.25-.22-13.99-.99.83,13.93,4,12.88,15.99,11.99.71-.05,3.16-1.91,5-.99-.11,1.78-1.93,1.5-3,1.99-1.68.77-9.98,3.47-9.98,4.5,8.03,10.14,21.11-6.62,28.02-8.96,4.17-1.41,9.2.19,13.23-3.49,2.42-2.2,1.95-6.39,4.73-8.54,3.25-2.51,15.51-6.52,20.67-9.33,23.17-12.65,38.79-31.09,56.31-50.17,0,.92.42,1.8,1,2.48,15.88,18.57,32.17,36.31,54,48.04,4.23,2.27,19.25,7.53,21.01,8.99,2.22,1.85,1.12,7.57,6.75,10.25,3.67,1.75,7,.64,10.33,1.67,1.71.53,8.37,6.12,11.27,7.73,3.49,1.94,9.97,6.04,13.65,4.32,7.62-3.56-3.5-5.94-6.98-7.49-1.37-.61-3.33-.76-3-1.99,2.07-.95,4.26.93,5,.99,10.58.79,15.58,1.47,16.96-10.56.35-3.05-4.58-.53-6.46-.45ZM143.5,111c-13.55,0-40.23-13.42-49.01-23.99-22.58-27.19,4.27-49.07,33.04-38.04,18.64,7.15,32.78,29.12,41.65,46.35,2.53,4.92,5.23,10.05,5.83,15.67h-31.5ZM209.19,69.69c8.44-11.48,20.71-21.84,35.42-23.58,25.62-3.02,41.5,17.42,24.37,39.37-9.49,12.15-36.18,25.52-51.48,25.52h-30.5c-2.89-2.51,19.23-37.29,22.19-41.31Z"/>
  <path class="st0" d="M65,178v2c.48-.66.47-1.32,0-2Z"/>
  <path class="st0" d="M294.96,179.98c.35,0,.69,0,1.04.02l2-2c-5.41,1.22-6.41,1.88-3.04,1.98Z"/>
  <path class="st0" d="M67,191l2,1c.51-.75-.16-1.08-2-1Z"/>
  <path class="st0" d="M293,192l2-1c-2.34-.19-3.01.14-2,1Z"/>
</svg>