<?xml version="1.0" encoding="UTF-8"?>
<svg id="_レイヤー_1" data-name="レイヤー_1" xmlns="http://www.w3.org/2000/svg" version="1.1" viewBox="0 0 494 548">
  <!-- Generator: Adobe Illustrator 29.6.0, SVG Export Plug-In . SVG Version: 2.1.1 Build 207)  -->
  <defs>
    <style>
      .st0 {
        fill: #fefdfd;
      }

      .st1 {
        fill: #fefefd;
      }

      .st2 {
        fill: #fdf2f1;
      }

      .st3 {
        fill: #fdf9f9;
      }

      .st4 {
        fill: #e84031;
      }

      .st5 {
        fill: #fefefe;
      }

      .st6 {
        fill: #e73a2a;
      }

      .st7 {
        fill: #e73c2c;
      }

      .st8 {
        fill: #fcedeb;
      }

      .st9 {
        fill: #f5dfde;
      }

      .st10 {
        fill: #fefcfc;
      }

      .st11 {
        fill: #fefbfb;
      }

      .st12 {
        fill: #fdf3f2;
      }

      .st13 {
        fill: #fbe5e2;
      }
    </style>
  </defs>
  <path class="st9" d="M420,548h-35c10.66-2.93,24.46-3.29,35,0Z"/>
  <path class="st6" d="M45,341c-10.45-89.41,36.19-175.05,118.33-212.17,3.62-1.64,22.91-7.83,23.68-8.84.11-.14-1.05-2.23-1.05-3.48-.04-13.86,9.25-23.17,22.04-26.52-4.63-11.57-10.09-24.71-12.5-36.97-.35-1.78-1.38-4.9-1.21-6.4.55-4.88,6.28-6.7,8.93-1.33,3.28,6.67,5.57,21.21,8.52,29.48.77,2.16,4.6,12.66,5.78,13.22,6.86-23.62,40.96-27.65,56.47-10.47l6.01,10.47,13.94-44.3c12.07-5.47,7.38,7.88,5.78,14.53-2.57,10.71-6.85,20.98-10.71,31.25,8.06,3.33,17.72,8.47,20.73,17.3,1.26,3.69.84,12.58,2.25,13.75,1.14.95,16.8,6.01,20.37,7.63,115.75,52.35,158.75,196.98,86.46,303.18-79.07,116.15-246.75,120.45-332.82,9.68-6.89-14.88-13.06-29.95-18.5-45.22-.95-3.85-.12-6.11,2.5-6.78l3.87,3.96c63.28,140.51,259.19,153.96,339.01,19.76,55.41-93.16,19.73-216.8-76.87-265.94-6.09-3.1-23.43-11.72-28.96-11.78-.52,0-6.98,7.02-7.19,7.5,7.78,31.7-27.52,42.67-51.13,30.71-22.73,12.1-58,.86-50.78-29.99-.14-.59-7.77-8.93-8.37-8.83-8.54,1.53-25.73,10.75-33.94,15.39-73.35,41.39-110.33,123.92-93.8,206.49l-.83,5.73-1.76,1.24c-4.8-7.3-9.55-14.71-14.24-22.24Z"/>
  <path class="st7" d="M61,362c2.43.13,3.95,2.06,4.55,5.79l5.68,18.87-1.23,2.34c-2.16,4.25.91,13.49,3.16,17.39,4.07,7.06,4,8.41,6.83,16.13,2.26,6.16,6.47,11.95,6.01,18.49-9.81-12.62-15.08-21.64-22-36-3.83-16.74-10.32-34.04-17-50-.89-4.76-1.44-9.19-2-14,7.41,4.49,9.84,11.85,13.58,18.96.65,1.24,2.27,1.77,2.42,2.04Z"/>
  <path class="st4" d="M47,355l4.15,5.39c4.59,10.6,8.58,21.01,11.05,31.82,1.04,4.56,4.49,7.6,1.8,12.79-8.36-17.34-13.39-30.8-17-50Z"/>
  <path class="st5" d="M61,362c-10.61-47.14-4.43-96.36,18.83-138.67,23.77-43.23,63.81-75.8,110.69-91.08,1.33,2.4,8.95,8.85,9.33,10.45s-1.15,8.01-.73,11.7c1.93,16.91,21.26,23.38,36.13,21.35,4.26-.58,10.73-4.29,13.43-4.51,1.74-.15,11.56,4.36,15.84,4.76,14.76,1.38,33.2-5.69,34.48-22.5.28-3.75-1.52-9.78-1.04-11.79.14-.6,7.75-6.49,8.03-9.25,126.01,38.84,176.77,192.83,96.45,299.47-89.71,119.1-275.83,94.3-332.42-42.92-3.28-7.96-5.3-20.18-9-27Z"/>
  <path class="st5" d="M269.93,90.92c-5.15.72-17.06,11.22-21.27,10.85-1.88-.16-21.41-11.01-21.52-12.25,5.99-17.29,39.91-17.99,42.79,1.4Z"/>
  <path class="st1" d="M204.98,132.99c-3.96,2.72-10.09-15.19-9.77-19.21.49-6.21,9.04-15.41,15.28-14.84,2.71.24,8.78,13.4,10.39,16.42-4.12,3.85-8.65,7.35-12.38,11.62-1.44,1.64-3.22,5.81-3.51,6.01Z"/>
  <path class="st5" d="M294.98,132.99c-1.94,1.61-2.6-2.78-3.52-3.94-4.6-5.85-10.07-9.62-15.36-14.69,1.93-1.86,7.7-15.22,8.55-15.42,4.3-1.02,12.39,4.57,14.77,8.13,3.12,4.67,3.22,8.3,1.89,13.75-.42,1.7-5.42,11.42-6.34,12.17Z"/>
  <path class="st0" d="M246.73,137.18c4.9-1.43,12.35,6.64,17.25,8.31.17,1.95-12.34,14-14.66,14.34-2.92.44-13.33-11.46-15.3-14.34,3.32-1.07,10.46-7.66,12.71-8.32Z"/>
  <path class="st0" d="M209.58,147.12c1.47-.36,12.56,1.65,15.42,1.39,3.52,6.33,9.01,10.88,13.99,15.99-8.09,4.15-23.2,2.5-28.43-5.55-1.51-2.32-4.6-10.96-.97-11.83Z"/>
  <path class="st0" d="M260.5,166c-.51-.13-1.44-1.01-1.01-2,.88-2.04,5.73-4.76,7.16-6.35,1.53-1.71,6.06-9.15,6.55-9.44,2.34-1.37,11.68,1.01,15.22-1.09,6.05,6.33-5.45,18.88-11.92,18.88-3.94,0-12.94.76-16,0Z"/>
  <path class="st10" d="M248.67,113.22c1.71-.14,10.67,5.65,10.32,7.26-.09.42-5.78,4.95-6.63,5.38-6.07,3.07-10.13-1.36-14.35-5.36,0-.78,9-7.15,10.65-7.28Z"/>
  <path class="st3" d="M284.99,138.99h-8s-.99-11.99-.99-11.99c2.25.92,10.79,10.24,8.99,11.99Z"/>
  <path class="st11" d="M221.01,139.01h-8c-.28-5.03,4.59-7.68,7.5-11l.5,11Z"/>
  <polygon class="st8" points="230.01 110 228.01 102 235.98 106.5 230.01 110"/>
  <path class="st12" d="M269,103.01l-1,5.99c-2.28.21-4.49-.78-5.97-2.5,1.8-2.08,4.06-3.8,6.98-3.49Z"/>
  <path class="st13" d="M230.01,136l1.49-6.99c6.03,3.59,5.88,6.18-1.49,6.99Z"/>
  <path class="st2" d="M267.99,137l-5.97-3.5,4.49-4.5c1.73,2.21,1.58,5.34,1.48,7.99Z"/>
</svg>