<?xml version="1.0" encoding="UTF-8"?>
<svg id="_レイヤー_1" data-name="レイヤー_1" xmlns="http://www.w3.org/2000/svg" version="1.1" viewBox="0 0 589 72">
  <!-- Generator: Adobe Illustrator 29.6.0, SVG Export Plug-In . SVG Version: 2.1.1 Build 207)  -->
  <defs>
    <style>
      .st0 {
        fill: #fefdfd;
      }

      .st1 {
        fill: #fefbfc;
      }

      .st2 {
        fill: #fee6ea;
      }

      .st3 {
        fill: #fc0133;
      }

      .st4 {
        fill: #fefbfb;
      }

      .st5 {
        fill: #fc1342;
      }
    </style>
  </defs>
  <path class="st3" d="M260,72c-5.61-2.62-10.8-5.18-12.94-11.57-3.01-8.96,5.23-12.84,4.88-14.8-.15-.85-2.91-2.84-3.77-4.29-1.8-3.04-3.64-6.95-4.67-10.33-.8-2.64-4.56-18.29-.98-19,3.75-.74,2.23,9.01,2.59,11.39.61,3.97,6.04,18.6,9.09,20.4,1.38.81,7.65-.89,10.32-.87,6.89.05,14.59,2.47,20.86,5.2,5.55,2.41,5.54,5.56,13.18,4.94,4.44-.36,4.16-2.03,7.4-3.6,6.58-3.18,13.08-6.03,20.55-6.44,8.52-.47,11.44,3.94,16.68-4.33,4.97-7.84,5.66-17.72,6.31-26.7,1.97-.27,3.32.34,3.53,2.49s-1.51,12.24-2.14,14.9-2.13,6.28-3.35,8.65c-.96,1.88-5.38,7.14-5.46,7.6-.23,1.32,3.47,4.11,4.43,6.36,2.53,5.96-.68,12.7-5.58,16.42l-9.93,3.57h-7l-10.46-1.83c-11.11-5.8-20.76-4.44-32.17.05-3.83.78-8.57,1.43-12.37.78-2.16.29-4.49.62-7,1h-2Z"/>
  <path class="st0" d="M324,72h-55c-.87-.28-.86-.62,0-1,12.95-.91,20.23-8.17,34.38-6.71l20.62,7.71Z"/>
  <path class="st2" d="M269,71v1h-7c1.4-1.84,4.79-.84,7-1Z"/>
  <path class="st5" d="M25.5,58h205c1.72,0,1.72,4,0,4H25.5c-1.3,0-2.22-3.1,0-4Z"/>
  <path class="st5" d="M363.5,58h205c1.72,0,1.72,4,0,4h-205c-1.3,0-2.22-3.1,0-4Z"/>
  <path class="st0" d="M306.01,61.99c-.25-1.36,1.79-1.52,2.75-1.72,9.54-1.98,14.1-2.14,23.26-6.75,4.31-2.17,6.29-6.76,9.99-2.01,2.36,3.02,2.46,4.65,1.23,8.23-5.01,14.49-27.17,6.72-37.22,2.26Z"/>
  <path class="st0" d="M287.99,61.01l-10.55,4.93c-8.05,2.37-19.98,4.55-25.44-3.44-2.21-3.23-3.1-6.44-1.05-10.05,3.35-5.88,4.87-2.16,7.71-.61,9.51,5.19,18.44,8.12,29.33,9.17Z"/>
  <path class="st4" d="M335,47.01c-8.58,8.12-20.97,8.88-31.99,10.99-1.8-2.17,6.79-6.65,8.2-7.29,7.23-3.25,15.96-4.92,23.79-3.7Z"/>
  <path class="st1" d="M290.99,58c-10.86-2.32-23.76-2.51-31.99-10.99,7.75-.57,14.3.22,21.52,2.97,3.65,1.39,9.82,3.58,10.47,8.02Z"/>
</svg>