<?xml version="1.0" encoding="UTF-8"?>
<svg id="_レイヤー_1" data-name="レイヤー_1" xmlns="http://www.w3.org/2000/svg" version="1.1" viewBox="0 0 604 90">
  <!-- Generator: Adobe Illustrator 29.6.0, SVG Export Plug-In . SVG Version: 2.1.1 Build 207)  -->
  <defs>
    <style>
      .st0 {
        fill: #e6292e;
      }

      .st1 {
        fill: #e7393d;
      }

      .st2 {
        fill: #e63136;
      }

      .st3 {
        fill: #f2a809;
      }

      .st4 {
        fill: #e5262b;
      }

      .st5 {
        fill: #fbe8e9;
      }

      .st6 {
        fill: #d80f25;
      }

      .st7 {
        fill: #e62b30;
      }

      .st8 {
        fill: #da1c30;
      }

      .st9 {
        fill: #da192d;
      }

      .st10 {
        fill: #d90f25;
      }

      .st11 {
        fill: #e83d41;
      }

      .st12 {
        fill: #db1f34;
      }

      .st13 {
        fill: #f2a707;
      }

      .st14 {
        fill: #f2a708;
      }

      .st15 {
        fill: #db1e32;
      }

      .st16 {
        fill: #e73439;
      }

      .st17 {
        fill: #df3648;
      }

      .st18 {
        fill: #e62d32;
      }
    </style>
  </defs>
  <rect class="st7" x="48" y="40" width="234" height="5"/>
  <path class="st4" d="M536,40c5.85,1.27,7.18,2.6,4,4-59.99.87-120.01.83-180,0-1.09-1.11-1.81-3.84-.44-4.01,58.81.14,117.64-.14,176.44.01Z"/>
  <path class="st6" d="M299,30c3.71,4.36,7.04,9.02,10,14,2.92,2.51,6.46,4.05,9,7-6.29,5.46-12.49.57-17-5-4.47-.77-9.52-9.06-8-14-1.84-11.81,6.42-21.92,18.54-21.05,12.34.89-7.24,6.06-9.56,8.53-2.61,2.78-3.27,6.86-2.98,10.52Z"/>
  <path class="st3" d="M292,34l.93.91c-.41,8.34-.51,13.01,6.07,19.09,6.74-.51,13.4-1.18,20-2,2.61-.89,4.94-2,7.49-3.01.98,0,.42,2.06.51,3.01.2,6.86-6.59,7.55-12,8-1.3,2.85-10.08,3.59-13.27,2.81-1.57-.38-4.04-1.47-4.73-2.81-11.7-3.85-15.2-19.38-6.51-28.01l1.51,2.01Z"/>
  <path class="st6" d="M332,41c2.53-.98,3.1-.53,2,2,5.89,6.61-.41,24.97-9,27-8.22,6.87-19.58,6.39-26.52-1.98-1.84-2.21-3.86-4.6-2.48-7.02,4.79,1.23,9.53,3.22,14.22,5.97,3.15-.33,6.08-.32,8.78.03.24-1.23,1.24-2.23,3-3-1.27-2.83,3.55-8.3,6-10,.86-2.85,1.63-12.47,2.01-13.01.13-.19,1.56.11,1.99,0Z"/>
  <path class="st14" d="M340,38c6.21,3.53,10.81,12.02,8,19-.83,12.69-11.38,17.67-23,15.99-.41-.25.88-1.5,1-1.99,1.72-2.79,4.55-4.62,8.5-5.48,9.86-6.16,5.26-15.24-.5-22.52-1.16-.87-1.21-1.13-2-2-.15-.17-.06-1.45-1.01-2.45-1.29-1.36-4.54-2.17-5.57-3.62-.76-1.05.54-1.64.58-1.94,4.83-4.25,11.31-.04,14,5Z"/>
  <path class="st10" d="M325,32c-3.5,1.11-7.02,1.46-9.99,4-4.88-7.1,17.09-12.82,21.6-12.9,16.56-.27,24.93,16.11,14.39,29.9-2.24,1.58-3.22-3.44-3.37-5.47,2.59-6.03.62-9.44-2.88-14.25l.25-1.28c-6.43-1.1-13.09-1.1-20,0Z"/>
  <path class="st13" d="M308,30c.49-2.39,1.48-5.82,2.5-8,6.18-13.13,24.26-17.04,32.95-3.95,7.69,11.59-9.04-1.58-10.16-1.84-16.65-3.82-22.08,14.67-21.3,27.79-.24.4-1.57-.96-1.99-1-5.46-1.41-7.21-10.31-2-13Z"/>
  <path class="st11" d="M360,44c59.98-.05,120.02.06,180,0,3.63-1.96,7.37-1.96,11,0,4.21-2.12,8.57-1.31,13,0,2.85-.98,5.85-.98,9,0,1.32-.96,2.98-.96,5,0-1.22-1.37-1.88-2.7-2-4,4.05.07,13.26-.8,16.34.16,3.27,1.02,1.64,5.47-1.79,4.89h-228.15c-1.3.16-1.63-.26-2.4-1.05Z"/>
  <path class="st18" d="M555,40l2.6.96c2.81-.28,9.58.25,6.4,3.04-4.32.02-8.68,0-13,0-4.16-.53-5.83-1.86-5-4,2.99.01,6.01-.01,9,0Z"/>
  <path class="st0" d="M546,40l5,4c-3.66,0-7.34,0-11,0,.81-3.07-3.25-1.38-4-4,3.33,0,6.67-.01,10,0Z"/>
  <path class="st2" d="M563,40l8.17,1.95c1.2.35,2.04.65,1.83,2.05-2.99.01-6.01-.01-9,0,.8-4.52-7.38.47-9-4,2.66,0,5.34-.02,8,0Z"/>
  <path class="st16" d="M570,40c4.08.26,6.74,1.59,8,4-1.67,0-3.33,0-5,0-3.13-1.87-7.47-.57-10-4,2.33.01,4.67-.02,7,0Z"/>
  <path class="st1" d="M576,40c2.37,3.61,8.41,2.06,11.99,3.01l-9.99.99-8-4c2,.02,4-.03,6,0Z"/>
  <path class="st8" d="M301,27c1.19-1.01,4.97-1.73,6-.98.27.2-.18,1.51,0,1.98-1.37,4.87-7.47,4.64-6-1Z"/>
  <path class="st9" d="M321,20.01c1.31-1.73,7.64-.71,6.99,2.48-.77,3.76-8.81-.07-6.99-2.48Z"/>
  <path class="st5" d="M322,64c-1.12,1.18-1.16,1.9-3,3-.32-.34-.63-.71-1-1-1.86-2.27.94-3.98,3-2h1Z"/>
  <path class="st15" d="M334,58.99c.96-3.84,2.14-5.03,5.99-5.99.66,5.33-.71,6.64-5.99,5.99Z"/>
  <path class="st12" d="M321,64l-3,2c-1.75-1.34-4.29-2.61-4-4.99l3-1.01c2.45.47,3.78,1.29,4,4Z"/>
  <path class="st17" d="M344,33c.02,2.34.31,3.3-1.03,6-.95-.46-1.96-.7-2.97-1-1.31-4.13-.81-7.92,4-5Z"/>
  <path class="st8" d="M301,46c1.72,3.72,3.31,5.51-1,7-4.15-1.2-2.75-7.02,1-7Z"/>
</svg>